<svg width="36" height="36" viewBox="0 0 36 36" fill="none" xmlns="http://www.w3.org/2000/svg">
<path fill-rule="evenodd" clip-rule="evenodd" d="M5.70962 9.30965C7.05982 7.95986 8.89084 7.20158 10.8 7.20158C12.7092 7.20158 14.5402 7.95986 15.8904 9.30965L18 11.4174L20.1096 9.30965C20.7738 8.62197 21.5683 8.07346 22.4467 7.69612C23.3251 7.31877 24.2699 7.12015 25.2259 7.11184C26.1819 7.10354 27.13 7.28571 28.0149 7.64773C28.8997 8.00975 29.7036 8.54438 30.3797 9.2204C31.0557 9.89643 31.5903 10.7003 31.9523 11.5852C32.3144 12.47 32.4965 13.4181 32.4882 14.3741C32.4799 15.3301 32.2813 16.2749 31.9039 17.1534C31.5266 18.0318 30.9781 18.8263 30.2904 19.4904L18 31.7826L5.70962 19.4904C4.35983 18.1402 3.60156 16.3092 3.60156 14.4C3.60156 12.4909 4.35983 10.6598 5.70962 9.30965V9.30965Z" fill="#F91880" stroke="#F91880" stroke-width="2" stroke-linejoin="round"/>
</svg>
