<svg width="26" height="32" viewBox="0 0 26 32" fill="none" xmlns="http://www.w3.org/2000/svg">
<path d="M1.15836 24.5164L0.373385 23.8969L0.373384 23.8969L1.15836 24.5164ZM2.90283 19.7555L1.90283 19.7428V19.7555H2.90283ZM2.93944 16.8771L3.93944 16.8898V16.8771H2.93944ZM24.851 24.5395L25.6483 23.936L25.6483 23.936L24.851 24.5395ZM23.1721 19.7555L22.1721 19.7421V19.7555H23.1721ZM23.2087 17.0197L24.2087 17.0331V17.0197H23.2087ZM1.94334 25.1359C2.92203 23.8958 3.90283 22.034 3.90283 19.7555H1.90283C1.90283 21.4501 1.17005 22.8874 0.373385 23.8969L1.94334 25.1359ZM3.90275 19.7682L3.93936 16.8898L1.93952 16.8644L1.90291 19.7428L3.90275 19.7682ZM25.6483 23.936C24.8855 22.9281 24.1721 21.4763 24.1721 19.7555H22.1721C22.1721 22.035 23.1132 23.9005 24.0536 25.143L25.6483 23.936ZM24.172 19.7689L24.2087 17.0331L22.2088 17.0063L22.1722 19.7421L24.172 19.7689ZM24.2087 17.0197C24.2087 11.005 19.1541 6.19369 13 6.19369V8.19369C18.1222 8.19369 22.2087 12.1809 22.2087 17.0197H24.2087ZM24.24 26.8735C25.0532 26.8735 25.5987 26.321 25.8322 25.7932C26.0627 25.2719 26.1018 24.5351 25.6483 23.936L24.0536 25.143C24.0115 25.0873 24.0016 25.0356 24.0002 25.0121C23.999 24.9917 24.0028 24.9849 24.0031 24.9842C24.0032 24.984 24.0119 24.9627 24.0479 24.9355C24.0899 24.9038 24.159 24.8735 24.24 24.8735V26.8735ZM3.93944 16.8771C3.93944 12.117 7.95964 8.19369 13 8.19369V6.19369C6.92778 6.19369 1.93944 10.9411 1.93944 16.8771H3.93944ZM1.76145 24.8735C1.84471 24.8735 1.91499 24.9052 1.95666 24.9373C1.97521 24.9515 1.98584 24.9639 1.99105 24.9709C1.99625 24.9778 1.998 24.9818 1.99832 24.9825C1.99865 24.9833 1.99893 24.984 1.99924 24.9858C1.99956 24.9876 2.00048 24.9938 1.99969 25.0048C1.99807 25.0272 1.9877 25.0797 1.94334 25.1359L0.373384 23.8969C-0.0993798 24.4959 -0.065557 25.2444 0.160265 25.7709C0.388776 26.3037 0.934859 26.8735 1.76145 26.8735V24.8735ZM24.24 24.8735H1.76145V26.8735H24.24V24.8735ZM16.8 25.8735C16.8 27.6036 15.2025 29.1843 13 29.1843V31.1843C16.0994 31.1843 18.8 28.905 18.8 25.8735H16.8ZM13 29.1843C10.7975 29.1843 9.2 27.6036 9.2 25.8735H7.2C7.2 28.905 9.90057 31.1843 13 31.1843V29.1843ZM15.2 4.12827C15.2 5.22891 14.256 6.19369 13 6.19369V8.19369C15.2787 8.19369 17.2 6.4136 17.2 4.12827H15.2ZM13 6.19369C11.744 6.19369 10.8 5.22891 10.8 4.12827H8.8C8.8 6.4136 10.7213 8.19369 13 8.19369V6.19369ZM10.8 4.12827C10.8 3.02764 11.744 2.06286 13 2.06286V0.0628586C10.7213 0.0628586 8.8 1.84295 8.8 4.12827H10.8ZM13 2.06286C14.256 2.06286 15.2 3.02764 15.2 4.12827H17.2C17.2 1.84295 15.2787 0.0628586 13 0.0628586V2.06286Z" fill="#6D6D6D"/>
</svg>
